<?xml version="1.0" encoding="utf-8"?>
<!-- Generator: Adobe Illustrator 16.0.0, SVG Export Plug-In . SVG Version: 6.00 Build 0)  -->
<!DOCTYPE svg PUBLIC "-//W3C//DTD SVG 1.1//EN" "http://www.w3.org/Graphics/SVG/1.1/DTD/svg11.dtd">
<svg version="1.1" id="Layer_1" xmlns="http://www.w3.org/2000/svg" xmlns:xlink="http://www.w3.org/1999/xlink" x="0px" y="0px"
	 width="261px" height="68px" viewBox="0 0 261 68" enable-background="new 0 0 261 68" xml:space="preserve">
<g id="button_4_">
	<g>
		<path fill="#82B21C" d="M257,0H4C1.791,0,0,1.791,0,4v60c0,2.209,1.791,4,4,4h253c2.209,0,4-1.791,4-4V4
			C261,1.791,259.209,0,257,0z"/>
	</g>
</g>
<g id="sep_13_">
	<g>
		<rect x="65" fill="#9EBE59" width="1" height="68"/>
	</g>
</g>
<g id="Android_1_">
	<g>
		<path fill-rule="evenodd" clip-rule="evenodd" fill="#FFFFFF" d="M21.99,27.489c-1.103,0-1.996,0.925-1.996,2.064v7.817
			c0,1.141,0.894,2.064,1.996,2.064s1.996-0.924,1.996-2.064v-7.817C23.986,28.414,23.093,27.489,21.99,27.489z M24.996,41.44
			c0,0.653,0.813,1.509,1.485,1.509h1.563v4.492c0,1.144,0.856,2.064,1.923,2.064s1.923-0.921,1.923-2.064v-4.492h4.154v4.492
			c0,1.144,0.856,2.064,1.923,2.064s1.936-0.921,1.936-2.064v-4.492h1.613c0.673,0,1.485-0.855,1.485-1.509V27.952H24.996V41.44z
			 M38.308,20.013l1.556-2.592c0,0,0.074-0.138-0.065-0.215c-0.141-0.077-0.233,0.054-0.233,0.054l-1.58,2.616
			c-1.202-0.514-2.555-0.804-3.984-0.804s-2.782,0.29-3.985,0.804l-1.579-2.616c0,0-0.088-0.132-0.229-0.055s-0.07,0.216-0.07,0.216
			l1.556,2.592c-2.831,1.332-4.751,3.938-4.751,6.929h18.117C43.059,23.951,41.14,21.345,38.308,20.013z M31,24h-2v-2h2V24z M39,24
			h-2v-2h2V24z M45.979,27.489c-1.085,0-1.965,0.925-1.965,2.064v7.817c0,1.141,0.88,2.064,1.965,2.064
			c1.086,0,1.965-0.924,1.965-2.064v-7.817C47.943,28.414,47.064,27.489,45.979,27.489z"/>
	</g>
</g>
<g>
	<path fill="#FFFFFF" d="M92.489,48l-0.756-2.035h-5.149L85.827,48h-2.899l4.627-12.01h3.205L95.388,48H92.489z M89.158,38.547
		l-1.873,5.168h3.745L89.158,38.547z"/>
	<path fill="#FFFFFF" d="M104.471,48l-5.726-7.832V48h-2.557V35.99h2.629l5.563,7.545V35.99h2.557V48H104.471z"/>
	<path fill="#FFFFFF" d="M109.188,48V35.99h4.735c3.763,0,6.374,2.395,6.374,5.996c0,3.637-2.611,6.014-6.356,6.014H109.188z
		 M117.687,41.986c0-2.107-1.296-3.745-3.745-3.745h-2.197v7.509h2.179C116.3,45.75,117.687,44.039,117.687,41.986z"/>
	<path fill="#FFFFFF" d="M128.977,48l-2.359-4.268h-1.873V48h-2.557V35.99h5.618c2.502,0,4.051,1.639,4.051,3.871
		c0,2.107-1.351,3.26-2.647,3.565L131.93,48H128.977z M129.229,39.844c0-0.99-0.774-1.603-1.783-1.603h-2.701v3.241h2.701
		C128.454,41.482,129.229,40.87,129.229,39.844z"/>
	<path fill="#FFFFFF" d="M133.612,42.004c0-3.619,2.646-6.211,6.284-6.211c3.619,0,6.266,2.592,6.266,6.211
		s-2.646,6.212-6.266,6.212C136.259,48.216,133.612,45.623,133.612,42.004z M143.533,42.004c0-2.25-1.422-3.943-3.637-3.943
		c-2.232,0-3.655,1.693-3.655,3.943c0,2.232,1.423,3.943,3.655,3.943C142.111,45.947,143.533,44.236,143.533,42.004z"/>
	<path fill="#FFFFFF" d="M148.188,48V35.99h2.557V48H148.188z"/>
	<path fill="#FFFFFF" d="M153.188,48V35.99h4.735c3.764,0,6.374,2.395,6.374,5.996c0,3.637-2.61,6.014-6.356,6.014H153.188z
		 M161.688,41.986c0-2.107-1.297-3.745-3.746-3.745h-2.196v7.509h2.179C160.301,45.75,161.688,44.039,161.688,41.986z"/>
	<path fill="#FFFFFF" d="M171.188,48V35.99h4.735c3.763,0,6.374,2.395,6.374,5.996c0,3.637-2.611,6.014-6.356,6.014H171.188z
		 M179.687,41.986c0-2.107-1.296-3.745-3.745-3.745h-2.196v7.509h2.179C178.301,45.75,179.687,44.039,179.687,41.986z"/>
	<path fill="#FFFFFF" d="M184.188,48V35.99h8.498v2.251h-5.941v2.521h5.815v2.251h-5.815v2.737h5.941V48H184.188z"/>
	<path fill="#FFFFFF" d="M197.556,48l-4.628-12.01h2.899l3.331,9.219l3.331-9.219h2.898L200.761,48H197.556z"/>
	<path fill="#FFFFFF" d="M206.188,48V35.99h2.557V48H206.188z"/>
	<path fill="#FFFFFF" d="M210.612,42.004c0-3.709,2.791-6.211,6.41-6.211c2.628,0,4.159,1.422,5.005,2.934l-2.196,1.081
		c-0.504-0.972-1.585-1.747-2.809-1.747c-2.197,0-3.781,1.675-3.781,3.943c0,2.27,1.584,3.943,3.781,3.943
		c1.224,0,2.305-0.773,2.809-1.746l2.196,1.063c-0.846,1.494-2.377,2.952-5.005,2.952C213.403,48.216,210.612,45.695,210.612,42.004
		z"/>
	<path fill="#FFFFFF" d="M223.188,48V35.99h8.498v2.251h-5.941v2.521h5.815v2.251h-5.815v2.737h5.941V48H223.188z"/>
	<path fill="#FFFFFF" d="M232.36,46.308l1.404-1.999c0.846,0.883,2.16,1.639,3.817,1.639c1.422,0,2.088-0.63,2.088-1.332
		c0-2.089-6.914-0.631-6.914-5.15c0-1.998,1.729-3.654,4.556-3.654c1.908,0,3.493,0.576,4.682,1.674l-1.423,1.909
		c-0.972-0.9-2.269-1.314-3.493-1.314c-1.08,0-1.692,0.468-1.692,1.188c0,1.891,6.896,0.611,6.896,5.096
		c0,2.196-1.585,3.853-4.808,3.853C235.151,48.216,233.494,47.441,232.36,46.308z"/>
</g>
<g>
	<path fill="#FFFFFF" d="M84.014,25v-8.671h2.964c2.704,0,4.446,1.885,4.446,4.342c0,2.47-1.742,4.329-4.446,4.329H84.014z
		 M90.306,20.671c0-1.872-1.183-3.38-3.328-3.38h-1.885v6.748h1.885C89.084,24.038,90.306,22.53,90.306,20.671z"/>
	<path fill="#FFFFFF" d="M92.611,21.854c0-1.82,1.196-3.289,3.107-3.289s3.107,1.469,3.107,3.289c0,1.82-1.196,3.302-3.107,3.302
		S92.611,23.674,92.611,21.854z M97.798,21.854c0-1.274-0.741-2.418-2.08-2.418c-1.339,0-2.08,1.145-2.08,2.418
		c0,1.287,0.741,2.431,2.08,2.431C97.057,24.285,97.798,23.141,97.798,21.854z"/>
	<path fill="#FFFFFF" d="M105.409,25l-1.638-5.044L102.133,25h-0.975l-2.002-6.279h1.014l1.534,5.005l1.651-5.005h0.845l1.638,5.005
		l1.534-5.005h1.027L106.397,25H105.409z"/>
	<path fill="#FFFFFF" d="M114.226,25v-4.108c0-1.118-0.572-1.456-1.417-1.456c-0.767,0-1.482,0.468-1.859,0.975V25h-0.975v-6.279
		h0.975v0.91c0.442-0.533,1.3-1.066,2.249-1.066c1.3,0,1.989,0.663,1.989,2.028V25H114.226z"/>
	<path fill="#FFFFFF" d="M116.975,25v-8.671h0.975V25H116.975z"/>
	<path fill="#FFFFFF" d="M119.611,21.854c0-1.82,1.196-3.289,3.107-3.289s3.107,1.469,3.107,3.289c0,1.82-1.196,3.302-3.107,3.302
		S119.611,23.674,119.611,21.854z M124.798,21.854c0-1.274-0.741-2.418-2.08-2.418c-1.339,0-2.08,1.145-2.08,2.418
		c0,1.287,0.741,2.431,2.08,2.431C124.057,24.285,124.798,23.141,124.798,21.854z"/>
	<path fill="#FFFFFF" d="M130.901,25v-0.715c-0.507,0.572-1.235,0.871-2.08,0.871c-1.053,0-2.184-0.715-2.184-2.08
		c0-1.417,1.118-2.067,2.184-2.067c0.858,0,1.573,0.273,2.08,0.845v-1.131c0-0.832-0.676-1.313-1.586-1.313
		c-0.754,0-1.365,0.26-1.924,0.871l-0.455-0.676c0.676-0.702,1.482-1.04,2.509-1.04c1.339,0,2.431,0.598,2.431,2.119V25H130.901z
		 M130.901,23.674v-1.196c-0.377-0.507-1.04-0.767-1.716-0.767c-0.923,0-1.56,0.572-1.56,1.365c0,0.806,0.637,1.378,1.56,1.378
		C129.861,24.454,130.524,24.194,130.901,23.674z"/>
	<path fill="#FFFFFF" d="M138.525,25v-0.936c-0.469,0.637-1.235,1.092-2.119,1.092c-1.639,0-2.795-1.248-2.795-3.29
		c0-2.015,1.156-3.302,2.795-3.302c0.845,0,1.611,0.416,2.119,1.105v-3.341h0.975V25H138.525z M138.525,23.284V20.45
		c-0.338-0.546-1.105-1.014-1.872-1.014c-1.274,0-2.028,1.04-2.028,2.431s0.754,2.418,2.028,2.418
		C137.42,24.285,138.188,23.83,138.525,23.284z"/>
	<path fill="#FFFFFF" d="M150.202,25l-0.767-1.937h-4.316L144.352,25h-1.234l3.497-8.671h1.339L151.438,25H150.202z M147.277,17.434
		l-1.833,4.68h3.679L147.277,17.434z"/>
	<path fill="#FFFFFF" d="M153.95,24.051v3.341h-0.976v-8.671h0.976v0.936c0.455-0.637,1.235-1.092,2.119-1.092
		c1.651,0,2.795,1.248,2.795,3.289c0,2.028-1.144,3.302-2.795,3.302C155.211,25.156,154.471,24.74,153.95,24.051z M157.838,21.854
		c0-1.391-0.755-2.418-2.016-2.418c-0.768,0-1.534,0.455-1.872,1.001v2.834c0.338,0.546,1.104,1.014,1.872,1.014
		C157.083,24.285,157.838,23.245,157.838,21.854z"/>
	<path fill="#FFFFFF" d="M160.95,24.051v3.341h-0.976v-8.671h0.976v0.936c0.455-0.637,1.235-1.092,2.119-1.092
		c1.651,0,2.795,1.248,2.795,3.289c0,2.028-1.144,3.302-2.795,3.302C162.211,25.156,161.471,24.74,160.95,24.051z M164.838,21.854
		c0-1.391-0.755-2.418-2.016-2.418c-0.768,0-1.534,0.455-1.872,1.001v2.834c0.338,0.546,1.104,1.014,1.872,1.014
		C164.083,24.285,164.838,23.245,164.838,21.854z"/>
	<path fill="#FFFFFF" d="M170.248,25v-5.421h-1.04v-0.858h1.04V18.24c0-1.287,0.715-2.041,1.82-2.041
		c0.507,0,0.936,0.117,1.326,0.481l-0.403,0.624c-0.208-0.182-0.455-0.299-0.767-0.299c-0.65,0-1.002,0.429-1.002,1.235v0.481h1.274
		v0.858h-1.274V25H170.248z"/>
	<path fill="#FFFFFF" d="M173.611,21.854c0-1.82,1.195-3.289,3.107-3.289c1.91,0,3.106,1.469,3.106,3.289
		c0,1.82-1.196,3.302-3.106,3.302C174.807,25.156,173.611,23.674,173.611,21.854z M178.798,21.854c0-1.274-0.74-2.418-2.079-2.418
		c-1.34,0-2.08,1.145-2.08,2.418c0,1.287,0.74,2.431,2.08,2.431C178.058,24.285,178.798,23.141,178.798,21.854z"/>
	<path fill="#FFFFFF" d="M180.975,25v-6.279h0.976v1.001c0.507-0.65,1.235-1.144,2.093-1.144v1.001
		c-0.117-0.013-0.233-0.026-0.377-0.026c-0.611,0-1.43,0.494-1.716,1.001V25H180.975z"/>
</g>
</svg>
